<?xml version="1.0" encoding="utf-8"?>
<!-- Generator: Adobe Illustrator 22.1.0, SVG Export Plug-In . SVG Version: 6.00 Build 0)  -->
<svg version="1.1" id="_x31_0" xmlns="http://www.w3.org/2000/svg" xmlns:xlink="http://www.w3.org/1999/xlink" x="0px" y="0px"
	 viewBox="0 0 128 222" style="enable-background:new 0 0 128 222;" xml:space="preserve">
<style type="text/css">
	.st0{fill:#FAF0E4;}
	.st1{fill:#FEEED7;}
	.st2{fill:#55476C;}
	.st3{fill:#F6E2C3;}
	.st4{fill:#F9EBD6;}
	.st5{fill:#FBC87D;}
	.st6{fill:#FDE9CB;}
	.st7{fill:#FFFFFF;}
</style>
<g>
	<polygon class="st0" points="111.816,27.486 115.355,17.84 97.978,17.84 101.518,27.486 	"/>
	<polygon class="st1" points="91.441,10.592 94.632,19.291 100.56,26.409 97.369,17.709 	"/>
	<polygon class="st2" points="121.894,63.408 118.701,54.709 112.773,47.591 115.966,56.291 	"/>
	<polygon class="st3" points="115.276,17.312 106.667,2.379 98.058,17.312 	"/>
	<polygon class="st2" points="115.787,74 106.667,72.418 97.547,74 106.667,75.582 	"/>
	<polygon class="st1" points="36.559,10.592 30.632,17.709 27.44,26.409 33.368,19.291 	"/>
	<polygon class="st4" points="106.249,2.046 96.137,0.292 90.988,9.223 97.561,17.115 	"/>
	<polygon class="st4" points="37.012,9.223 31.863,0.292 21.751,2.046 30.439,17.115 	"/>
	<polygon class="st2" points="6.106,137.408 12.035,130.291 15.227,121.591 9.299,128.709 	"/>
	<polygon class="st2" points="12.213,148 21.334,149.582 30.453,148 21.334,146.418 	"/>
	<polygon class="st0" points="16.184,27.486 26.483,27.486 30.022,17.84 12.645,17.84 	"/>
	<polygon class="st2" points="6.106,84.591 9.299,93.291 15.227,100.409 12.035,91.709 	"/>
	<polygon class="st2" points="121.894,84.591 115.966,91.709 112.773,100.409 118.701,93.291 	"/>
	<polygon class="st2" points="6.106,158.591 9.299,167.29 15.227,174.409 12.035,165.709 	"/>
	<polygon class="st2" points="121.894,137.408 118.701,128.709 112.773,121.591 115.966,130.291 	"/>
	<polygon class="st2" points="121.894,158.591 115.966,165.709 112.773,174.409 118.701,167.29 	"/>
	<polygon class="st2" points="115.787,148 106.667,146.418 97.547,148 106.667,149.582 	"/>
	<polygon class="st3" points="72.609,130.689 55.391,130.689 64.001,145.621 	"/>
	<polygon class="st4" points="53.197,110.707 58.346,101.778 51.773,93.885 43.085,108.953 	"/>
	<polygon class="st5" points="69.181,102.015 58.819,102.015 53.638,110.999 58.819,119.985 69.181,119.985 74.362,110.999 	"/>
	<polygon class="st0" points="69.15,120.514 58.852,120.514 55.312,130.16 72.688,130.16 	"/>
	<polygon class="st2" points="12.213,74 21.334,75.582 30.453,74 21.334,72.418 	"/>
	<polygon class="st1" points="48.774,84.591 51.966,93.291 57.894,100.409 54.702,91.709 	"/>
	<polygon class="st4" points="58.346,120.222 53.197,111.291 43.085,113.045 51.773,128.115 	"/>
	<polygon class="st3" points="51.277,128.311 42.667,113.378 34.057,128.311 	"/>
	<polygon class="st3" points="29.943,17.312 21.334,2.379 12.724,17.312 	"/>
	<polygon class="st1" points="42.667,112.581 51.786,110.999 42.667,109.419 33.547,110.999 	"/>
	<polygon class="st3" points="42.667,108.622 51.277,93.689 34.057,93.689 	"/>
	<polygon class="st3" points="55.391,91.31 72.609,91.31 64.001,76.379 	"/>
	<polygon class="st4" points="9.106,19.885 0.417,34.955 10.531,36.709 15.68,27.778 	"/>
	<polygon class="st4" points="20.916,2.046 10.804,0.292 5.655,9.223 12.227,17.115 	"/>
	<polygon class="st2" points="26.515,28.014 16.152,28.014 10.971,37.001 16.152,45.986 26.515,45.986 31.696,37.001 	"/>
	<polygon class="st1" points="15.227,26.409 12.035,17.709 6.106,10.592 9.299,19.291 	"/>
	<polygon class="st0" points="58.852,101.486 69.15,101.486 72.688,91.839 55.312,91.839 	"/>
	<polygon class="st2" points="47.847,82.986 53.028,74 47.847,65.014 37.486,65.014 32.305,74 37.486,82.986 	"/>
	<polygon class="st2" points="27.44,47.591 30.632,56.291 36.559,63.408 33.368,54.709 	"/>
	<polygon class="st2" points="37.486,213.014 32.305,222 53.028,222 47.847,213.014 	"/>
	<path class="st6" d="M10.531,110.707l5.149-8.929l-6.816-8.184c-0.018-0.022-0.034-0.049-0.045-0.078L5.086,83.342
		c-0.045-0.122,0.004-0.256,0.116-0.321c0.111-0.063,0.252-0.038,0.334,0.06l6.934,8.325c0.02,0.024,0.034,0.05,0.045,0.078
		l3.669,10.003h10.3l3.669-10.003c0.01-0.028,0.025-0.054,0.045-0.078l6.815-8.183l-5.149-8.931l-10.484,1.819
		c-0.016,0.003-0.03,0.004-0.045,0.004c-0.016,0-0.03-0.001-0.046-0.004l-10.666-1.85c-0.127-0.022-0.219-0.132-0.219-0.26
		c0-0.128,0.093-0.239,0.219-0.26l10.666-1.85c0.031-0.005,0.061-0.005,0.091,0l10.484,1.819l5.149-8.931l-6.815-8.182
		c-0.02-0.024-0.034-0.05-0.045-0.078l-3.669-10.003h-10.3l-3.669,10.003c-0.01,0.028-0.025,0.054-0.045,0.078l-6.934,8.324
		c-0.052,0.062-0.127,0.095-0.203,0.095c-0.045,0-0.09-0.011-0.131-0.034c-0.112-0.065-0.161-0.2-0.116-0.321l3.733-10.174
		c0.011-0.029,0.027-0.056,0.045-0.078l6.816-8.184l-5.149-8.931L0.045,39.11C0.03,39.113,0.015,39.114,0,39.114v30.657
		c2.328,0,4.224,1.897,4.224,4.229c0,2.331-1.896,4.229-4.224,4.229v30.657c0.015,0,0.029,0.001,0.045,0.004L10.531,110.707z"/>
	<polygon class="st2" points="0,109.419 0,112.581 9.119,110.999 	"/>
	<path class="st2" d="M3.696,148c0-2.041-1.658-3.701-3.696-3.701v7.401C2.038,151.701,3.696,150.041,3.696,148z"/>
	<polygon class="st2" points="6.106,63.408 12.035,56.291 15.227,47.591 9.299,54.709 	"/>
	<polygon class="st1" points="0,183.417 0,186.581 9.119,184.999 	"/>
	<polygon class="st3" points="0,187.378 0,202.309 8.61,202.309 	"/>
	<path class="st6" d="M10.531,184.707l5.149-8.931l-6.816-8.183c-0.018-0.024-0.034-0.05-0.045-0.078L5.086,157.34
		c-0.045-0.12,0.004-0.255,0.116-0.32c0.111-0.063,0.252-0.038,0.334,0.06l6.934,8.325c0.02,0.024,0.034,0.05,0.045,0.078
		l3.669,10.002h10.3l3.669-10.002c0.01-0.028,0.025-0.054,0.045-0.078l6.815-8.183l-5.149-8.931l-10.484,1.819
		c-0.016,0.003-0.03,0.003-0.045,0.003c-0.016,0-0.03,0-0.046-0.003l-10.666-1.85c-0.127-0.022-0.219-0.132-0.219-0.26
		c0-0.13,0.093-0.239,0.219-0.26l10.666-1.85c0.031-0.005,0.061-0.005,0.091,0l10.484,1.819l5.149-8.931l-6.815-8.184
		c-0.02-0.022-0.034-0.049-0.045-0.078l-3.669-10.001h-10.3l-3.669,10.001c-0.01,0.029-0.025,0.056-0.045,0.078l-6.934,8.325
		c-0.052,0.062-0.127,0.095-0.203,0.095c-0.045,0-0.09-0.012-0.131-0.036c-0.112-0.063-0.161-0.198-0.116-0.32l3.733-10.174
		c0.011-0.029,0.027-0.055,0.045-0.078l6.816-8.184l-5.149-8.931L0.045,113.11c-0.015,0.003-0.03,0.004-0.045,0.004v30.657
		c2.328,0,4.224,1.897,4.224,4.229c0,2.331-1.896,4.229-4.224,4.229v30.655c0.015,0,0.029,0.001,0.045,0.004L10.531,184.707z"/>
	<polygon class="st1" points="0,35.419 0,38.581 9.119,37.001 	"/>
	<polygon class="st3" points="0,19.689 0,34.622 8.61,19.689 	"/>
	<polygon class="st2" points="90.514,8.986 95.696,0 74.972,0 80.153,8.986 	"/>
	<polygon class="st2" points="47.847,8.986 53.028,0 32.305,0 37.486,8.986 	"/>
	<polygon class="st2" points="73.12,0 54.88,0 64.001,1.582 	"/>
	<polygon class="st1" points="115.787,0 97.547,0 106.667,1.582 	"/>
	<polygon class="st1" points="30.453,0 12.213,0 21.334,1.582 	"/>
	<polygon class="st0" points="5.149,9.515 0,9.515 0,19.16 8.688,19.16 	"/>
	<polygon class="st0" points="8.688,202.838 0,202.838 0,212.485 5.149,212.485 	"/>
	<polygon class="st5" points="10.362,0 0,0 0,8.986 5.181,8.986 	"/>
	<path class="st2" d="M3.696,74c0-2.041-1.658-3.701-3.696-3.701v7.401C2.038,77.701,3.696,76.041,3.696,74z"/>
	<polygon class="st2" points="128,112.581 128,109.419 118.881,110.999 	"/>
	<polygon class="st1" points="128,186.581 128,183.417 118.881,184.999 	"/>
	<path class="st6" d="M117.47,111.291l-5.149,8.931l6.816,8.184c0.02,0.023,0.034,0.049,0.045,0.078l3.733,10.174
		c0.045,0.122-0.004,0.256-0.115,0.32c-0.042,0.024-0.087,0.036-0.132,0.036c-0.076,0-0.152-0.033-0.203-0.095l-6.934-8.325
		c-0.019-0.022-0.035-0.049-0.045-0.078l-3.669-10.001h-10.298l-3.671,10.001c-0.011,0.029-0.025,0.056-0.045,0.078l-6.815,8.184
		l5.149,8.931l10.486-1.819c0.029-0.005,0.059-0.005,0.09,0l10.666,1.85c0.127,0.021,0.219,0.131,0.219,0.26
		c0,0.128-0.092,0.238-0.219,0.26l-10.666,1.85c-0.015,0.003-0.03,0.003-0.045,0.003c-0.016,0-0.03,0-0.045-0.003l-10.486-1.819
		l-5.149,8.931l6.815,8.183c0.02,0.024,0.034,0.05,0.045,0.078l3.671,10.002h10.298l3.669-10.002
		c0.011-0.028,0.026-0.054,0.045-0.078l6.934-8.325c0.082-0.099,0.223-0.123,0.335-0.06c0.111,0.065,0.16,0.2,0.115,0.32
		l-3.733,10.176c-0.01,0.028-0.025,0.054-0.045,0.078l-6.816,8.183l5.149,8.931l10.485-1.819c0.015-0.003,0.031-0.004,0.045-0.004
		v-30.655c-2.328,0-4.224-1.898-4.224-4.229c0-2.333,1.896-4.229,4.224-4.229v-30.657c-0.014,0-0.03-0.001-0.045-0.004
		L117.47,111.291z"/>
	<path class="st2" d="M124.304,148c0,2.041,1.658,3.701,3.696,3.701v-7.401C125.962,144.299,124.304,145.959,124.304,148z"/>
	<path class="st2" d="M124.304,74c0,2.041,1.658,3.701,3.696,3.701v-7.401C125.962,70.299,124.304,71.959,124.304,74z"/>
	<polygon class="st0" points="119.312,19.16 128,19.16 128,9.515 122.851,9.515 	"/>
	<polygon class="st1" points="128,38.581 128,35.419 118.881,37.001 	"/>
	<path class="st6" d="M117.47,37.291l-5.149,8.931l6.816,8.184c0.02,0.022,0.034,0.049,0.045,0.078l3.733,10.174
		c0.045,0.121-0.004,0.256-0.115,0.321c-0.042,0.024-0.087,0.034-0.132,0.034c-0.076,0-0.152-0.033-0.203-0.095l-6.934-8.324
		c-0.019-0.024-0.035-0.05-0.045-0.078l-3.669-10.003h-10.298l-3.671,10.003c-0.011,0.028-0.025,0.054-0.045,0.078l-6.815,8.182
		l5.149,8.931l10.486-1.819c0.029-0.005,0.059-0.005,0.09,0l10.666,1.85c0.127,0.021,0.219,0.132,0.219,0.26
		c0,0.128-0.092,0.238-0.219,0.26l-10.666,1.85c-0.015,0.003-0.03,0.004-0.045,0.004c-0.016,0-0.03-0.001-0.045-0.004l-10.486-1.819
		l-5.149,8.931l6.815,8.183c0.02,0.024,0.034,0.05,0.045,0.078l3.671,10.003h10.298l3.669-10.003
		c0.011-0.028,0.026-0.054,0.045-0.078l6.934-8.325c0.082-0.098,0.223-0.123,0.335-0.06c0.111,0.065,0.16,0.2,0.115,0.321
		l-3.733,10.174c-0.01,0.029-0.025,0.056-0.045,0.078l-6.816,8.184l5.149,8.929l10.485-1.817c0.015-0.003,0.031-0.004,0.045-0.004
		V78.229c-2.328,0-4.224-1.898-4.224-4.229c0-2.333,1.896-4.229,4.224-4.229V39.114c-0.014,0-0.03-0.001-0.045-0.004L117.47,37.291z
		"/>
	<polygon class="st5" points="0,213.014 0,222 10.362,222 5.181,213.014 	"/>
	<polygon class="st2" points="80.153,213.014 74.972,222 95.696,222 90.514,213.014 	"/>
	<polygon class="st3" points="128,202.309 128,187.378 119.392,202.309 	"/>
	<polygon class="st2" points="54.88,222 73.12,222 64.001,220.418 	"/>
	<polygon class="st1" points="12.213,222 30.453,222 21.334,220.418 	"/>
	<polygon class="st1" points="54.702,130.291 57.894,121.591 51.966,128.709 48.774,137.408 	"/>
	<polygon class="st1" points="97.547,222 115.787,222 106.667,220.418 	"/>
	<polygon class="st0" points="122.851,212.485 128,212.485 128,202.838 119.312,202.838 	"/>
	<polygon class="st5" points="117.639,222 128,222 128,213.014 122.819,213.014 	"/>
	<polygon class="st3" points="128,34.622 128,19.689 119.392,19.689 	"/>
	<polygon class="st2" points="80.153,139.014 74.972,148 80.153,156.985 90.514,156.985 95.696,148 90.514,139.014 	"/>
	<polygon class="st2" points="76.035,167.29 79.228,158.591 73.3,165.709 70.107,174.409 	"/>
	<polygon class="st4" points="85.752,108.953 95.864,110.707 101.013,101.778 94.439,93.885 	"/>
	<polygon class="st0" points="76.646,128.839 80.184,138.485 90.482,138.485 94.022,128.839 	"/>
	<polygon class="st1" points="91.441,137.408 97.369,130.291 100.56,121.591 94.632,128.709 	"/>
	<polygon class="st2" points="101.487,119.985 111.848,119.985 117.029,110.999 111.848,102.015 101.487,102.015 96.305,110.999 	
		"/>
	<polygon class="st2" points="51.786,184.999 42.667,183.417 33.547,184.999 42.667,186.581 	"/>
	<polygon class="st4" points="85.752,113.045 94.439,128.115 101.013,120.222 95.864,111.291 	"/>
	<polygon class="st2" points="57.894,174.409 54.702,165.709 48.774,158.591 51.966,167.29 	"/>
	<polygon class="st2" points="101.487,193.986 111.848,193.986 117.029,184.999 111.848,176.014 101.487,176.014 96.305,184.999 	
		"/>
	<polygon class="st2" points="100.56,174.409 97.369,165.709 91.441,158.591 94.632,167.29 	"/>
	<polygon class="st4" points="118.894,202.114 127.583,187.045 117.47,185.291 112.321,194.222 	"/>
	<ellipse class="st2" cx="64.001" cy="184.999" rx="3.696" ry="3.701"/>
	<path class="st6" d="M80.184,157.514l-3.669,10.003c-0.011,0.028-0.027,0.054-0.045,0.078l-6.934,8.325
		c-0.051,0.062-0.127,0.095-0.203,0.095c-0.045,0-0.09-0.012-0.132-0.036c-0.111-0.065-0.16-0.2-0.115-0.32l3.733-10.176
		c0.01-0.028,0.025-0.054,0.045-0.078l6.816-8.183l-5.15-8.931l-10.484,1.819c-0.016,0.003-0.031,0.003-0.045,0.003
		c-0.016,0-0.03,0-0.046-0.003l-10.484-1.819l-5.149,8.931l6.815,8.183c0.02,0.024,0.034,0.05,0.045,0.078l3.734,10.176
		c0.043,0.12-0.005,0.255-0.116,0.32c-0.041,0.024-0.087,0.036-0.132,0.036c-0.077,0-0.151-0.033-0.203-0.095l-6.932-8.325
		c-0.02-0.024-0.036-0.05-0.046-0.078l-3.669-10.003H37.518l-3.669,10.003c-0.011,0.028-0.027,0.054-0.045,0.078l-6.816,8.183
		l5.149,8.931l10.486-1.819c0.031-0.005,0.061-0.005,0.09,0l10.668,1.85c0.125,0.022,0.218,0.132,0.218,0.26
		s-0.093,0.239-0.218,0.26l-10.668,1.85c-0.015,0.003-0.031,0.004-0.045,0.004c-0.014,0-0.03-0.001-0.045-0.004l-10.486-1.819
		l-5.149,8.931l6.816,8.183c0.018,0.024,0.034,0.05,0.045,0.078l3.669,10.003h10.298l3.669-10.003
		c0.011-0.028,0.027-0.054,0.046-0.078l6.932-8.324c0.083-0.099,0.224-0.124,0.335-0.059c0.111,0.063,0.16,0.198,0.116,0.32
		l-3.734,10.174c-0.011,0.029-0.025,0.056-0.045,0.078l-6.815,8.184l5.149,8.931l10.484-1.819c0.03-0.005,0.06-0.005,0.091,0
		l10.484,1.819l5.15-8.931l-6.816-8.184c-0.02-0.022-0.034-0.049-0.045-0.078l-3.733-10.174c-0.045-0.122,0.004-0.256,0.115-0.32
		c0.112-0.065,0.252-0.04,0.335,0.059l6.934,8.324c0.018,0.024,0.034,0.05,0.045,0.078l3.669,10.003h10.298l3.671-10.003
		c0.009-0.028,0.025-0.054,0.045-0.078l6.815-8.183l-5.149-8.931l-10.485,1.819c-0.015,0.003-0.029,0.004-0.045,0.004
		c-0.015,0-0.031-0.001-0.045-0.004l-10.666-1.85c-0.127-0.021-0.219-0.132-0.219-0.26s0.092-0.238,0.219-0.26l10.666-1.85
		c0.03-0.005,0.061-0.005,0.09,0l10.485,1.819l5.149-8.931l-6.815-8.183c-0.02-0.024-0.036-0.05-0.045-0.078l-3.671-10.003H80.184z
		 M64.001,189.229c-2.33,0-4.224-1.897-4.224-4.229c0-2.331,1.894-4.229,4.224-4.229c2.328,0,4.224,1.898,4.224,4.229
		C68.225,187.332,66.329,189.229,64.001,189.229z"/>
	<polygon class="st2" points="70.107,195.591 73.3,204.291 79.228,211.408 76.035,202.709 	"/>
	<polygon class="st2" points="51.966,202.709 48.774,211.408 54.702,204.291 57.894,195.591 	"/>
	<polygon class="st2" points="76.214,184.999 85.334,186.581 94.454,184.999 85.334,183.417 	"/>
	<polygon class="st1" points="112.773,26.409 118.701,19.291 121.894,10.592 115.966,17.709 	"/>
	<polygon class="st4" points="112.321,27.778 117.47,36.709 127.583,34.955 118.894,19.885 	"/>
	<polygon class="st2" points="101.487,28.014 96.305,37.001 101.487,45.986 111.848,45.986 117.029,37.001 111.848,28.014 	"/>
	<polygon class="st2" points="76.214,37.001 85.334,38.581 94.454,37.001 85.334,35.419 	"/>
	<polygon class="st2" points="57.894,26.409 54.702,17.709 48.774,10.592 51.966,19.291 	"/>
	<polygon class="st2" points="76.035,19.291 79.228,10.592 73.3,17.709 70.107,26.409 	"/>
	<polygon class="st5" points="117.639,0 122.819,8.986 128,8.986 128,0 	"/>
	<polygon class="st4" points="107.084,2.046 115.773,17.115 122.347,9.223 117.198,0.292 	"/>
	<polygon class="st1" points="112.773,195.591 115.966,204.291 121.894,211.408 118.701,202.709 	"/>
	<polygon class="st1" points="100.56,100.409 97.369,91.709 91.441,84.591 94.632,93.291 	"/>
	<polygon class="st2" points="80.153,65.014 74.972,74 80.153,82.986 90.514,82.986 95.696,74 90.514,65.014 	"/>
	<polygon class="st2" points="91.441,63.408 97.369,56.291 100.56,47.591 94.632,54.709 	"/>
	<polygon class="st2" points="51.786,37.001 42.667,35.419 33.547,37.001 42.667,38.581 	"/>
	<polygon class="st0" points="80.184,83.515 76.646,93.16 94.022,93.16 90.482,83.515 	"/>
	<path class="st2" d="M64.001,33.3c-2.038,0-3.696,1.66-3.696,3.701c0,2.039,1.658,3.701,3.696,3.701
		c2.038,0,3.696-1.661,3.696-3.701C67.697,34.96,66.039,33.3,64.001,33.3z"/>
	<polygon class="st2" points="51.966,54.709 48.774,63.408 54.702,56.291 57.894,47.591 	"/>
	<path class="st6" d="M85.378,39.11c-0.015,0.003-0.029,0.004-0.045,0.004c-0.015,0-0.031-0.001-0.045-0.004l-10.666-1.849
		c-0.127-0.023-0.219-0.132-0.219-0.26c0-0.129,0.092-0.239,0.219-0.262l10.666-1.849c0.03-0.005,0.061-0.005,0.09,0l10.485,1.819
		l5.149-8.931l-6.815-8.184c-0.02-0.022-0.036-0.049-0.045-0.078L90.482,9.515H80.184l-3.669,10.001
		c-0.011,0.029-0.027,0.056-0.045,0.078l-6.934,8.325c-0.051,0.062-0.127,0.095-0.203,0.095c-0.045,0-0.09-0.012-0.132-0.036
		c-0.111-0.063-0.16-0.2-0.115-0.32l3.733-10.174c0.01-0.029,0.025-0.056,0.045-0.079l6.816-8.183l-5.15-8.931L64.046,2.111
		c-0.016,0.003-0.031,0.004-0.045,0.004c-0.016,0-0.03-0.001-0.046-0.004L53.47,0.292l-5.149,8.931l6.815,8.183
		c0.02,0.024,0.034,0.05,0.045,0.079l3.734,10.174c0.043,0.12-0.005,0.256-0.116,0.32c-0.041,0.024-0.087,0.036-0.132,0.036
		c-0.077,0-0.151-0.033-0.203-0.095l-6.932-8.325c-0.02-0.022-0.036-0.049-0.046-0.078L47.816,9.515H37.518l-3.669,10.001
		c-0.011,0.029-0.027,0.056-0.045,0.078l-6.816,8.184l5.149,8.931l10.486-1.819c0.031-0.005,0.061-0.005,0.09,0l10.668,1.849
		c0.125,0.022,0.218,0.132,0.218,0.262c0,0.128-0.093,0.238-0.218,0.26L42.712,39.11c-0.015,0.003-0.031,0.004-0.045,0.004
		c-0.014,0-0.03-0.001-0.045-0.004l-10.486-1.819l-5.149,8.931l6.816,8.184c0.018,0.022,0.034,0.049,0.045,0.078l3.669,10.001
		h10.298l3.669-10.001c0.011-0.029,0.027-0.056,0.046-0.078l6.932-8.325c0.083-0.099,0.224-0.124,0.335-0.059
		c0.111,0.065,0.16,0.2,0.116,0.32l-3.734,10.176c-0.011,0.028-0.025,0.054-0.045,0.078l-6.815,8.182l5.149,8.931l10.484-1.819
		c0.03-0.005,0.06-0.005,0.091,0l10.484,1.819l5.15-8.931l-6.816-8.182c-0.02-0.024-0.034-0.05-0.045-0.078l-3.733-10.176
		c-0.045-0.12,0.004-0.255,0.115-0.32c0.112-0.065,0.252-0.04,0.335,0.059l6.934,8.325c0.018,0.022,0.034,0.049,0.045,0.078
		l3.669,10.001h10.298l3.671-10.001c0.009-0.029,0.025-0.056,0.045-0.078l6.815-8.184l-5.149-8.931L85.378,39.11z M64.001,41.23
		c-2.33,0-4.224-1.898-4.224-4.229c0-2.333,1.894-4.229,4.224-4.229c2.328,0,4.224,1.897,4.224,4.229
		C68.225,39.332,66.329,41.23,64.001,41.23z"/>
	<polygon class="st2" points="70.107,47.591 73.3,56.291 79.228,63.408 76.035,54.709 	"/>
	<polygon class="st4" points="15.68,194.222 10.531,185.291 0.417,187.045 9.106,202.114 	"/>
	<polygon class="st1" points="54.88,74 64.001,75.582 73.12,74 64.001,72.418 	"/>
	<polygon class="st4" points="48.321,83.223 54.895,91.115 63.582,76.046 53.47,74.292 	"/>
	<polygon class="st0" points="51.356,93.16 47.816,83.515 37.518,83.515 33.979,93.16 	"/>
	<polygon class="st4" points="74.53,74.292 64.418,76.046 73.107,91.115 79.68,83.223 	"/>
	<polygon class="st4" points="42.25,108.953 33.561,93.885 26.987,101.778 32.136,110.707 	"/>
	<polygon class="st4" points="42.25,113.045 32.136,111.291 26.987,120.222 33.561,128.115 	"/>
	<polygon class="st2" points="26.515,102.015 16.152,102.015 10.971,110.999 16.152,119.985 26.515,119.985 31.696,110.999 	"/>
	<polygon class="st1" points="36.559,84.591 30.632,91.709 27.44,100.409 33.368,93.291 	"/>
	<polygon class="st1" points="73.3,91.709 70.107,100.409 76.035,93.291 79.228,84.591 	"/>
	<polygon class="st3" points="76.725,93.689 85.334,108.622 93.943,93.689 	"/>
	<polygon class="st4" points="79.68,138.777 73.107,130.885 64.418,145.954 74.53,147.708 	"/>
	<polygon class="st1" points="70.107,121.591 73.3,130.291 79.228,137.408 76.035,128.709 	"/>
	<polygon class="st1" points="73.12,148 64.001,146.418 54.88,148 64.001,149.582 	"/>
	<polygon class="st4" points="74.803,111.291 69.654,120.222 76.227,128.115 84.916,113.045 	"/>
	<polygon class="st1" points="27.44,121.591 30.632,130.291 36.559,137.408 33.368,128.709 	"/>
	<polygon class="st4" points="69.654,101.778 74.803,110.707 84.916,108.953 76.227,93.885 	"/>
	<polygon class="st3" points="85.334,113.378 76.725,128.311 93.943,128.311 	"/>
	<polygon class="st1" points="85.334,109.419 76.214,110.999 85.334,112.581 94.454,110.999 	"/>
	<polygon class="st2" points="36.559,158.591 30.632,165.709 27.44,174.409 33.368,167.29 	"/>
	<polygon class="st1" points="15.227,195.591 9.299,202.709 6.106,211.408 12.035,204.291 	"/>
	<polygon class="st0" points="47.816,138.485 51.356,128.839 33.979,128.839 37.518,138.485 	"/>
	<polygon class="st4" points="90.988,212.777 96.137,221.708 106.249,219.954 97.561,204.884 	"/>
	<polygon class="st4" points="5.655,212.777 10.804,221.708 20.916,219.954 12.227,204.884 	"/>
	<polygon class="st3" points="12.724,204.689 21.334,219.621 29.943,204.689 	"/>
	<polygon class="st3" points="98.058,204.689 106.667,219.621 115.276,204.689 	"/>
	<polygon class="st0" points="111.816,194.514 101.518,194.514 97.978,204.16 115.355,204.16 	"/>
	<polygon class="st1" points="91.441,211.408 97.369,204.291 100.56,195.591 94.632,202.709 	"/>
	<polygon class="st4" points="21.751,219.954 31.863,221.708 37.012,212.777 30.439,204.884 	"/>
	<polygon class="st2" points="47.847,156.985 53.028,148 47.847,139.014 37.486,139.014 32.305,148 37.486,156.985 	"/>
	<polygon class="st1" points="36.559,211.408 33.368,202.709 27.44,195.591 30.632,204.291 	"/>
	<polygon class="st2" points="26.515,193.986 31.696,184.999 26.515,176.014 16.152,176.014 10.971,184.999 16.152,193.986 	"/>
	<polygon class="st4" points="107.084,219.954 117.198,221.708 122.347,212.777 115.773,204.884 	"/>
	<polygon class="st0" points="16.184,194.514 12.645,204.16 30.022,204.16 26.483,194.514 	"/>
	<polygon class="st4" points="53.47,147.708 63.582,145.954 54.895,130.885 48.321,138.777 	"/>
	<path class="st7" d="M117.639,0h-1.852l-9.119,1.582L97.547,0h-1.85l-5.182,8.986H80.153L74.972,0H73.12l-9.119,1.582L54.88,0
		h-1.852l-5.181,8.986H37.486L32.305,0h-1.852l-9.119,1.582L12.213,0h-1.852L5.181,8.986H0v0.529h5.149l3.539,9.646H0v0.529h8.61
		L0,34.622v0.797l9.119,1.582L0,38.581v0.533c0.015,0,0.03-0.001,0.045-0.004l10.486-1.819l5.149,8.931l-6.816,8.184
		c-0.018,0.022-0.034,0.049-0.045,0.078L5.086,64.658c-0.045,0.121,0.004,0.256,0.116,0.321c0.041,0.024,0.086,0.034,0.131,0.034
		c0.077,0,0.152-0.033,0.203-0.095l6.934-8.324c0.02-0.024,0.034-0.05,0.045-0.078l3.669-10.003h10.3l3.669,10.003
		c0.01,0.028,0.025,0.054,0.045,0.078l6.815,8.182l-5.149,8.931l-10.484-1.819c-0.03-0.005-0.061-0.005-0.091,0l-10.666,1.85
		c-0.127,0.021-0.219,0.132-0.219,0.26c0,0.128,0.093,0.238,0.219,0.26l10.666,1.85c0.016,0.003,0.031,0.004,0.046,0.004
		c0.015,0,0.029-0.001,0.045-0.004l10.484-1.819l5.149,8.931l-6.815,8.183c-0.02,0.024-0.034,0.05-0.045,0.078l-3.669,10.003h-10.3
		l-3.669-10.003c-0.01-0.028-0.025-0.054-0.045-0.078L5.536,83.08c-0.082-0.098-0.223-0.123-0.334-0.06
		c-0.112,0.065-0.161,0.2-0.116,0.321l3.733,10.174c0.011,0.029,0.027,0.056,0.045,0.078l6.816,8.184l-5.149,8.929L0.045,108.89
		c-0.016-0.003-0.03-0.004-0.045-0.004v0.533l9.119,1.581L0,112.581v0.533c0.015,0,0.03-0.001,0.045-0.004l10.486-1.819l5.149,8.931
		l-6.816,8.184c-0.018,0.023-0.034,0.049-0.045,0.078l-3.733,10.174c-0.045,0.122,0.004,0.256,0.116,0.32
		c0.041,0.024,0.086,0.036,0.131,0.036c0.077,0,0.152-0.033,0.203-0.095l6.934-8.325c0.02-0.022,0.034-0.049,0.045-0.078
		l3.669-10.001h10.3l3.669,10.001c0.01,0.029,0.025,0.056,0.045,0.078l6.815,8.184l-5.149,8.931l-10.484-1.819
		c-0.03-0.005-0.061-0.005-0.091,0l-10.666,1.85c-0.127,0.021-0.219,0.131-0.219,0.26c0,0.128,0.093,0.238,0.219,0.26l10.666,1.85
		c0.016,0.003,0.031,0.003,0.046,0.003c0.015,0,0.029,0,0.045-0.003l10.484-1.819l5.149,8.931l-6.815,8.183
		c-0.02,0.024-0.034,0.05-0.045,0.078l-3.669,10.002h-10.3l-3.669-10.002c-0.01-0.028-0.025-0.054-0.045-0.078l-6.934-8.325
		c-0.082-0.098-0.223-0.123-0.334-0.06c-0.112,0.065-0.161,0.2-0.116,0.32l3.733,10.176c0.011,0.028,0.027,0.054,0.045,0.078
		l6.816,8.183l-5.149,8.931l-10.486-1.819c-0.016-0.003-0.03-0.004-0.045-0.004v0.533l9.119,1.582L0,186.581v0.797l8.61,14.931H0
		v0.529h8.688l-3.539,9.647H0v0.529h5.181L10.362,222h1.852l9.121-1.582L30.453,222h1.852l5.181-8.986h10.361L53.028,222h1.852
		l9.121-1.582L73.12,222h1.852l5.181-8.986h10.361L95.696,222h1.85l9.121-1.582l9.119,1.582h1.852l5.181-8.986H128v-0.529h-5.149
		l-3.539-9.647H128v-0.529h-8.608L128,187.378v-0.797l-9.119-1.582l9.119-1.582v-0.533c-0.014,0-0.03,0.001-0.045,0.004
		l-10.485,1.819l-5.149-8.931l6.816-8.183c0.02-0.024,0.034-0.05,0.045-0.078l3.733-10.176c0.045-0.12-0.004-0.255-0.115-0.32
		c-0.112-0.063-0.254-0.04-0.335,0.06l-6.934,8.325c-0.019,0.024-0.035,0.05-0.045,0.078l-3.669,10.002h-10.298l-3.671-10.002
		c-0.011-0.028-0.025-0.054-0.045-0.078l-6.815-8.183l5.149-8.931l10.486,1.819c0.015,0.003,0.029,0.003,0.045,0.003
		c0.014,0,0.03,0,0.045-0.003l10.666-1.85c0.127-0.022,0.219-0.132,0.219-0.26c0-0.13-0.092-0.239-0.219-0.26l-10.666-1.85
		c-0.03-0.005-0.061-0.005-0.09,0l-10.486,1.819l-5.149-8.931l6.815-8.184c0.02-0.022,0.034-0.049,0.045-0.078l3.671-10.001h10.298
		l3.669,10.001c0.011,0.029,0.026,0.056,0.045,0.078l6.934,8.325c0.052,0.062,0.127,0.095,0.203,0.095
		c0.045,0,0.09-0.012,0.132-0.036c0.111-0.063,0.16-0.198,0.115-0.32l-3.733-10.174c-0.01-0.029-0.025-0.055-0.045-0.078
		l-6.816-8.184l5.149-8.931l10.485,1.819c0.015,0.003,0.031,0.004,0.045,0.004v-0.533l-9.119-1.582l9.119-1.581v-0.533
		c-0.014,0-0.03,0.001-0.045,0.004l-10.485,1.817l-5.149-8.929l6.816-8.184c0.02-0.022,0.034-0.049,0.045-0.078l3.733-10.174
		c0.045-0.122-0.004-0.256-0.115-0.321c-0.112-0.063-0.254-0.038-0.335,0.06l-6.934,8.325c-0.019,0.024-0.035,0.05-0.045,0.078
		l-3.669,10.003h-10.298l-3.671-10.003c-0.011-0.028-0.025-0.054-0.045-0.078l-6.815-8.183l5.149-8.931l10.486,1.819
		c0.015,0.003,0.029,0.004,0.045,0.004c0.014,0,0.03-0.001,0.045-0.004l10.666-1.85c0.127-0.022,0.219-0.132,0.219-0.26
		c0-0.128-0.092-0.239-0.219-0.26l-10.666-1.85c-0.03-0.005-0.061-0.005-0.09,0l-10.486,1.819l-5.149-8.931l6.815-8.182
		c0.02-0.024,0.034-0.05,0.045-0.078l3.671-10.003h10.298l3.669,10.003c0.011,0.028,0.026,0.054,0.045,0.078l6.934,8.324
		c0.052,0.062,0.127,0.095,0.203,0.095c0.045,0,0.09-0.011,0.132-0.034c0.111-0.065,0.16-0.2,0.115-0.321l-3.733-10.174
		c-0.01-0.029-0.025-0.056-0.045-0.078l-6.816-8.184l5.149-8.931l10.485,1.819c0.015,0.003,0.031,0.004,0.045,0.004v-0.533
		l-9.119-1.581L128,35.419v-0.797l-8.608-14.933H128V19.16h-8.688l3.539-9.646H128V8.986h-5.181L117.639,0z M12.035,56.291
		l-5.929,7.117l3.193-8.699l5.928-7.117L12.035,56.291z M21.334,75.582L12.213,74l9.121-1.582L30.453,74L21.334,75.582z
		 M9.299,93.291l-3.193-8.701l5.929,7.119l3.192,8.699L9.299,93.291z M12.035,130.291l-5.929,7.117l3.193-8.699l5.928-7.117
		L12.035,130.291z M21.334,149.582L12.213,148l9.121-1.582L30.453,148L21.334,149.582z M9.299,167.29l-3.193-8.699l5.929,7.119
		l3.192,8.699L9.299,167.29z M115.966,165.709l5.928-7.119l-3.193,8.699l-5.928,7.119L115.966,165.709z M106.667,146.418
		l9.119,1.582l-9.119,1.582L97.547,148L106.667,146.418z M118.701,128.709l3.193,8.699l-5.928-7.117l-3.193-8.699L118.701,128.709z
		 M115.966,91.709l5.928-7.119l-3.193,8.701l-5.928,7.117L115.966,91.709z M106.667,72.418L115.787,74l-9.119,1.582L97.547,74
		L106.667,72.418z M118.701,54.709l3.193,8.699l-5.928-7.117l-3.193-8.699L118.701,54.709z M115.276,17.312H98.058l8.61-14.932
		L115.276,17.312z M97.978,17.84h17.377l-3.539,9.646h-10.298L97.978,17.84z M100.56,26.409l-5.928-7.117l-3.192-8.699l5.928,7.117
		L100.56,26.409z M96.137,0.292l10.112,1.754l-8.688,15.069l-6.573-7.892L96.137,0.292z M31.863,0.292l5.149,8.931l-6.573,7.892
		L21.751,2.046L31.863,0.292z M30.632,17.709l5.928-7.117l-3.191,8.699l-5.928,7.117L30.632,17.709z M26.483,27.486h-10.3
		l-3.539-9.646h17.377L26.483,27.486z M29.943,17.312H12.724l8.61-14.932L29.943,17.312z M10.804,0.292l10.112,1.754l-8.689,15.069
		L5.655,9.223L10.804,0.292z M6.106,10.592l5.929,7.117l3.192,8.699l-5.928-7.117L6.106,10.592z M0.417,34.955l8.689-15.07
		l6.573,7.893l-5.149,8.931L0.417,34.955z M16.152,45.986l-5.181-8.985l5.181-8.986h10.363l5.181,8.986l-5.181,8.985H16.152z
		 M30.632,56.291l-3.192-8.699l5.928,7.117l3.191,8.699L30.632,56.291z M32.305,74l5.181-8.986h10.361L53.028,74l-5.181,8.986
		H37.486L32.305,74z M72.688,91.839l-3.539,9.647H58.852l-3.54-9.647H72.688z M55.391,91.31l8.61-14.931l8.609,14.931H55.391z
		 M55.312,130.16l3.54-9.646H69.15l3.539,9.646H55.312z M72.609,130.689l-8.609,14.932l-8.61-14.932H72.609z M58.819,119.985
		l-5.181-8.986l5.181-8.985h10.363l5.181,8.985l-5.181,8.986H58.819z M57.894,100.409l-5.928-7.117l-3.192-8.701l5.928,7.119
		L57.894,100.409z M58.346,101.778l-5.149,8.929l-10.112-1.754l8.688-15.068L58.346,101.778z M42.667,108.622l-8.61-14.932h17.22
		L42.667,108.622z M51.786,110.999l-9.119,1.582l-9.119-1.582l9.119-1.581L51.786,110.999z M51.277,128.311h-17.22l8.61-14.932
		L51.277,128.311z M43.085,113.045l10.112-1.754l5.149,8.931l-6.573,7.893L43.085,113.045z M51.966,128.709l5.928-7.117
		l-3.192,8.699l-5.928,7.117L51.966,128.709z M54.895,130.885l8.688,15.069l-10.112,1.754l-5.149-8.931L54.895,130.885z
		 M64.001,146.418L73.12,148l-9.119,1.582L54.88,148L64.001,146.418z M64.418,145.954l8.689-15.069l6.573,7.892l-5.15,8.931
		L64.418,145.954z M73.3,130.291l-3.193-8.699l5.928,7.117l3.193,8.699L73.3,130.291z M69.654,120.222l5.149-8.931l10.113,1.754
		l-8.689,15.07L69.654,120.222z M85.334,113.378l8.61,14.932H76.725L85.334,113.378z M76.214,110.999l9.119-1.581l9.121,1.581
		l-9.121,1.582L76.214,110.999z M76.725,93.689h17.218l-8.61,14.932L76.725,93.689z M84.916,108.953l-10.113,1.754l-5.149-8.929
		l6.573-7.893L84.916,108.953z M76.035,93.291l-5.928,7.117l3.193-8.699l5.928-7.119L76.035,93.291z M73.107,91.115l-8.689-15.069
		l10.112-1.754l5.15,8.931L73.107,91.115z M64.001,75.582L54.88,74l9.121-1.582L73.12,74L64.001,75.582z M63.582,76.046
		l-8.688,15.069l-6.573-7.892l5.149-8.931L63.582,76.046z M37.518,83.515h10.298l3.54,9.646H33.979L37.518,83.515z M30.632,91.709
		l5.928-7.119l-3.191,8.701l-5.928,7.117L30.632,91.709z M33.561,93.885l8.689,15.068l-10.113,1.754l-5.149-8.929L33.561,93.885z
		 M16.152,119.985l-5.181-8.986l5.181-8.985h10.363l5.181,8.985l-5.181,8.986H16.152z M32.136,111.291l10.113,1.754l-8.689,15.07
		l-6.573-7.893L32.136,111.291z M30.632,130.291l-3.192-8.699l5.928,7.117l3.191,8.699L30.632,130.291z M33.979,128.839h17.377
		l-3.54,9.646H37.518L33.979,128.839z M32.305,148l5.181-8.986h10.361L53.028,148l-5.181,8.985H37.486L32.305,148z M30.632,165.709
		l5.928-7.119l-3.191,8.699l-5.928,7.119L30.632,165.709z M16.152,176.014h10.363l5.181,8.985l-5.181,8.986H16.152l-5.181-8.986
		L16.152,176.014z M30.022,204.16H12.645l3.539-9.646h10.3L30.022,204.16z M27.44,195.591l5.928,7.117l3.191,8.699l-5.928-7.117
		L27.44,195.591z M0.417,187.045l10.113-1.754l5.149,8.931l-6.573,7.892L0.417,187.045z M9.299,202.709l5.928-7.117l-3.192,8.699
		l-5.929,7.117L9.299,202.709z M10.804,221.708l-5.149-8.931l6.572-7.893l8.689,15.07L10.804,221.708z M12.724,204.689h17.219
		l-8.609,14.932L12.724,204.689z M31.863,221.708l-10.112-1.754l8.688-15.07l6.573,7.893L31.863,221.708z M96.137,221.708
		l-5.149-8.931l6.573-7.893l8.688,15.07L96.137,221.708z M97.369,204.291l-5.928,7.117l3.192-8.699l5.928-7.117L97.369,204.291z
		 M101.518,194.514h10.298l3.539,9.646H97.978L101.518,194.514z M98.058,204.689h17.218l-8.608,14.932L98.058,204.689z
		 M117.198,221.708l-10.113-1.754l8.689-15.07l6.573,7.893L117.198,221.708z M121.894,211.408l-5.928-7.117l-3.193-8.699
		l5.928,7.117L121.894,211.408z M127.583,187.045l-8.689,15.068l-6.573-7.892l5.149-8.931L127.583,187.045z M111.848,176.014
		l5.181,8.985l-5.181,8.986h-10.361l-5.182-8.986l5.182-8.985H111.848z M97.369,165.709l3.191,8.699l-5.928-7.119l-3.192-8.699
		L97.369,165.709z M94.153,167.516c0.009,0.028,0.025,0.054,0.045,0.078l6.815,8.183l-5.149,8.931l-10.485-1.819
		c-0.029-0.005-0.06-0.005-0.09,0l-10.666,1.85c-0.127,0.022-0.219,0.132-0.219,0.26s0.092,0.239,0.219,0.26l10.666,1.85
		c0.014,0.003,0.03,0.004,0.045,0.004c0.016,0,0.03-0.001,0.045-0.004l10.485-1.819l5.149,8.931l-6.815,8.183
		c-0.02,0.024-0.036,0.05-0.045,0.078l-3.671,10.003H80.184l-3.669-10.003c-0.011-0.028-0.027-0.054-0.045-0.078l-6.934-8.324
		c-0.083-0.099-0.223-0.124-0.335-0.059c-0.111,0.063-0.16,0.198-0.115,0.32l3.733,10.174c0.01,0.029,0.025,0.056,0.045,0.078
		l6.816,8.184l-5.15,8.931l-10.484-1.819c-0.031-0.005-0.061-0.005-0.091,0l-10.484,1.819l-5.149-8.931l6.815-8.184
		c0.02-0.022,0.034-0.049,0.045-0.078l3.734-10.174c0.043-0.122-0.005-0.256-0.116-0.32c-0.111-0.065-0.252-0.04-0.335,0.059
		l-6.932,8.324c-0.02,0.024-0.036,0.05-0.046,0.078l-3.669,10.003H37.518l-3.669-10.003c-0.011-0.028-0.027-0.054-0.045-0.078
		l-6.816-8.183l5.149-8.931l10.486,1.819c0.014,0.003,0.031,0.004,0.045,0.004c0.014,0,0.03-0.001,0.045-0.004l10.668-1.85
		c0.125-0.021,0.218-0.132,0.218-0.26s-0.093-0.238-0.218-0.26l-10.668-1.85c-0.029-0.005-0.059-0.005-0.09,0l-10.486,1.819
		l-5.149-8.931l6.816-8.183c0.018-0.024,0.034-0.05,0.045-0.078l3.669-10.003h10.298l3.669,10.003
		c0.011,0.028,0.027,0.054,0.046,0.078l6.932,8.325c0.053,0.062,0.127,0.095,0.203,0.095c0.045,0,0.091-0.012,0.132-0.036
		c0.111-0.065,0.16-0.2,0.116-0.32l-3.734-10.176c-0.011-0.028-0.025-0.054-0.045-0.078l-6.815-8.183l5.149-8.931l10.484,1.819
		c0.016,0.003,0.03,0.003,0.046,0.003c0.014,0,0.029,0,0.045-0.003l10.484-1.819l5.15,8.931l-6.816,8.183
		c-0.02,0.024-0.034,0.05-0.045,0.078l-3.733,10.176c-0.045,0.12,0.004,0.255,0.115,0.32c0.042,0.024,0.087,0.036,0.132,0.036
		c0.076,0,0.152-0.033,0.203-0.095l6.934-8.325c0.018-0.024,0.034-0.05,0.045-0.078l3.669-10.003h10.298L94.153,167.516z
		 M94.454,184.999l-9.121,1.582l-9.119-1.582l9.119-1.582L94.454,184.999z M79.228,211.408l-5.928-7.117l-3.193-8.699l5.928,7.117
		L79.228,211.408z M48.774,211.408l3.192-8.699l5.928-7.117l-3.192,8.699L48.774,211.408z M33.547,184.999l9.119-1.582l9.119,1.582
		l-9.119,1.582L33.547,184.999z M48.774,158.591l5.928,7.119l3.192,8.699l-5.928-7.119L48.774,158.591z M79.228,158.591
		l-3.193,8.699l-5.928,7.119l3.193-8.699L79.228,158.591z M95.696,148l-5.182,8.985H80.153L74.972,148l5.181-8.986h10.361
		L95.696,148z M90.482,138.485H80.184l-3.539-9.646h17.377L90.482,138.485z M97.369,130.291l-5.928,7.117l3.192-8.699l5.928-7.117
		L97.369,130.291z M94.439,128.115l-8.688-15.07l10.112-1.754l5.149,8.931L94.439,128.115z M111.848,102.015l5.181,8.985
		l-5.181,8.986h-10.361l-5.182-8.986l5.182-8.985H111.848z M95.864,110.707l-10.112-1.754l8.688-15.068l6.573,7.893L95.864,110.707z
		 M97.369,91.709l3.191,8.699l-5.928-7.117l-3.192-8.701L97.369,91.709z M94.022,93.16H76.646l3.539-9.646h10.298L94.022,93.16z
		 M95.696,74l-5.182,8.986H80.153L74.972,74l5.181-8.986h10.361L95.696,74z M97.369,56.291l-5.928,7.117l3.192-8.699l5.928-7.117
		L97.369,56.291z M94.198,54.406c-0.02,0.022-0.036,0.049-0.045,0.078l-3.671,10.001H80.184l-3.669-10.001
		c-0.011-0.029-0.027-0.056-0.045-0.078l-6.934-8.325c-0.083-0.099-0.223-0.124-0.335-0.059c-0.111,0.065-0.16,0.2-0.115,0.32
		l3.733,10.176c0.01,0.028,0.025,0.054,0.045,0.078l6.816,8.182l-5.15,8.931l-10.484-1.819c-0.031-0.005-0.061-0.005-0.091,0
		L53.47,73.708l-5.149-8.931l6.815-8.182c0.02-0.024,0.034-0.05,0.045-0.078l3.734-10.176c0.043-0.12-0.005-0.255-0.116-0.32
		c-0.111-0.065-0.252-0.04-0.335,0.059l-6.932,8.325c-0.02,0.022-0.036,0.049-0.046,0.078l-3.669,10.001H37.518l-3.669-10.001
		c-0.011-0.029-0.027-0.056-0.045-0.078l-6.816-8.184l5.149-8.931l10.486,1.819c0.014,0.003,0.031,0.004,0.045,0.004
		c0.014,0,0.03-0.001,0.045-0.004l10.668-1.849c0.125-0.023,0.218-0.132,0.218-0.26c0-0.129-0.093-0.239-0.218-0.262L42.712,34.89
		c-0.029-0.005-0.059-0.005-0.09,0l-10.486,1.819l-5.149-8.931l6.816-8.184c0.018-0.022,0.034-0.049,0.045-0.078l3.669-10.001
		h10.298l3.669,10.001c0.011,0.029,0.027,0.056,0.046,0.078l6.932,8.325c0.053,0.062,0.127,0.095,0.203,0.095
		c0.045,0,0.091-0.012,0.132-0.036c0.111-0.063,0.16-0.2,0.116-0.32l-3.734-10.174c-0.011-0.029-0.025-0.056-0.045-0.079
		l-6.815-8.183l5.149-8.931l10.484,1.819c0.016,0.003,0.03,0.004,0.046,0.004c0.014,0,0.029-0.001,0.045-0.004L74.53,0.292
		l5.15,8.931l-6.816,8.183c-0.02,0.024-0.034,0.05-0.045,0.079l-3.733,10.174c-0.045,0.12,0.004,0.256,0.115,0.32
		c0.042,0.024,0.087,0.036,0.132,0.036c0.076,0,0.152-0.033,0.203-0.095l6.934-8.325c0.018-0.022,0.034-0.049,0.045-0.078
		l3.669-10.001h10.298l3.671,10.001c0.009,0.029,0.025,0.056,0.045,0.078l6.815,8.184l-5.149,8.931L85.378,34.89
		c-0.029-0.005-0.06-0.005-0.09,0l-10.666,1.849c-0.127,0.022-0.219,0.132-0.219,0.262c0,0.128,0.092,0.238,0.219,0.26l10.666,1.849
		c0.014,0.003,0.03,0.004,0.045,0.004c0.016,0,0.03-0.001,0.045-0.004l10.485-1.819l5.149,8.931L94.198,54.406z M79.228,63.408
		L73.3,56.291l-3.193-8.699l5.928,7.117L79.228,63.408z M48.774,63.408l3.192-8.699l5.928-7.117l-3.192,8.699L48.774,63.408z
		 M33.547,37.001l9.119-1.582l9.119,1.582l-9.119,1.581L33.547,37.001z M48.774,10.592l5.928,7.117l3.192,8.699l-5.928-7.117
		L48.774,10.592z M79.228,10.592l-3.193,8.699l-5.928,7.117l3.193-8.699L79.228,10.592z M94.454,37.001l-9.121,1.581l-9.119-1.581
		l9.119-1.582L94.454,37.001z M111.848,45.986h-10.361l-5.182-8.985l5.182-8.986h10.361l5.181,8.986L111.848,45.986z
		 M127.583,34.955l-10.113,1.754l-5.149-8.931l6.573-7.893L127.583,34.955z M118.701,19.291l-5.928,7.117l3.193-8.699l5.928-7.117
		L118.701,19.291z M115.773,17.115l-8.689-15.069l10.113-1.754l5.149,8.931L115.773,17.115z"/>
	<path class="st7" d="M4.224,74c0-2.333-1.896-4.229-4.224-4.229v0.529c2.038,0,3.696,1.66,3.696,3.701
		c0,2.041-1.658,3.701-3.696,3.701v0.529C2.328,78.229,4.224,76.331,4.224,74z"/>
	<path class="st7" d="M123.776,74c0,2.331,1.896,4.229,4.224,4.229v-0.529c-2.038,0-3.696-1.66-3.696-3.701
		c0-2.041,1.658-3.701,3.696-3.701v-0.529C125.672,69.771,123.776,71.667,123.776,74z"/>
	<path class="st7" d="M123.776,148c0,2.331,1.896,4.229,4.224,4.229v-0.529c-2.038,0-3.696-1.66-3.696-3.701
		c0-2.041,1.658-3.701,3.696-3.701v-0.529C125.672,143.771,123.776,145.667,123.776,148z"/>
	<path class="st7" d="M64.001,180.77c-2.33,0-4.224,1.898-4.224,4.229c0,2.333,1.894,4.229,4.224,4.229
		c2.328,0,4.224-1.897,4.224-4.229C68.225,182.668,66.329,180.77,64.001,180.77z M64.001,188.7c-2.038,0-3.696-1.66-3.696-3.701
		s1.658-3.701,3.696-3.701c2.038,0,3.696,1.66,3.696,3.701S66.039,188.7,64.001,188.7z"/>
	<path class="st7" d="M4.224,148c0-2.333-1.896-4.229-4.224-4.229v0.529c2.038,0,3.696,1.66,3.696,3.701
		c0,2.041-1.658,3.701-3.696,3.701v0.529C2.328,152.229,4.224,150.331,4.224,148z"/>
	<path class="st7" d="M64.001,32.771c-2.33,0-4.224,1.897-4.224,4.229c0,2.332,1.894,4.229,4.224,4.229
		c2.328,0,4.224-1.898,4.224-4.229C68.225,34.668,66.329,32.771,64.001,32.771z M64.001,40.701c-2.038,0-3.696-1.661-3.696-3.701
		c0-2.041,1.658-3.701,3.696-3.701c2.038,0,3.696,1.66,3.696,3.701C67.697,39.04,66.039,40.701,64.001,40.701z"/>
</g>
</svg>
